<?xml version="1.0" encoding="UTF-8"?>
<!DOCTYPE svg PUBLIC "-//W3C//DTD SVG 1.1//EN" "http://www.w3.org/Graphics/SVG/1.1/DTD/svg11.dtd">
<!-- Creator: CorelDRAW 2019 (64 Bit) -->
<svg xmlns="http://www.w3.org/2000/svg" xml:space="preserve" width="500px" height="500px" version="1.1" style="shape-rendering:geometricPrecision; text-rendering:geometricPrecision; image-rendering:optimizeQuality; fill-rule:evenodd; clip-rule:evenodd"
viewBox="0 0 500 500"
 xmlns:xlink="http://www.w3.org/1999/xlink">
 <defs>
  <style type="text/css">
   <![CDATA[
    .fil1 {fill:#FEFEFE}
    .fil0 {fill:#FF6803}
    .fil2 {fill:#FFDAC1}
   ]]>
  </style>
 </defs>
 <g id="Camada_x0020_1">
  <metadata id="CorelCorpID_0Corel-Layer"/>
  <g id="_1908712957760">
   <path class="fil0" d="M123.62 387.38l-0.12 -295.88c8.39,-1.45 101.95,-0.51 118.5,-0.51 96.39,0 167.5,52.22 167.5,149.01l0 7c0,65.05 -38.6,110.99 -84.49,129 -33.11,12.99 -57.33,11.75 -95.01,11.75 -15.6,0 -98.45,1.03 -106.38,-0.37zm-42.87 -255.63l39.26 0 0 39.5 -39.51 0 0.25 -39.5zm0 -39.75l0.45 -3.53 38.05 0.02 0.85 3.5 -0.09 36.01 -39.01 0 -0.25 -36zm0.43 -7.34c-1.51,-5.62 -1,-32.71 -0.41,-39.64l39.22 -0.01c0.69,6.28 1.03,34.48 -0.33,39.65l-38.48 0zm-44.17 -39.41l0.99 -0.23 38 0 0.99 0.23 -0.99 39.4 -38.94 -0.15 -0.05 -39.25zm87.49 -0.01l38.71 0 0.04 39.26 -39.27 0 0.52 -39.26zm-130.5 460.76l512 0 0 -512 -512 0 0 512z"/>
   <path class="fil1" d="M231.88 298.75l-0.38 -115c42.67,0 69.43,13.45 70.02,57.25 0.6,45.41 -30.13,57.75 -69.64,57.75zm-108.26 88.63c7.93,1.4 90.78,0.37 106.38,0.37 37.68,0 61.9,1.24 95.01,-11.75 45.89,-18.01 84.49,-63.95 84.49,-129l0 -7c0,-96.79 -71.11,-149.01 -167.5,-149.01 -16.55,0 -110.11,-0.94 -118.5,0.51l0.12 295.88z"/>
   <path class="fil0" d="M231.88 298.75c39.51,0 70.24,-12.34 69.64,-57.75 -0.59,-43.8 -27.35,-57.25 -70.02,-57.25l0.38 115z"/>
   <polygon class="fil1" points="80.5,171.25 120.01,171.25 120.01,131.75 80.75,131.75 "/>
   <polygon class="fil1" points="81,128 120.01,128 120.1,91.99 119.25,88.49 81.2,88.47 80.75,92 "/>
   <polygon class="fil1" points="123.98,84.5 163.25,84.5 163.21,45.24 124.5,45.24 "/>
   <path class="fil1" d="M38 45.98c0,4.71 -0.84,35.89 0.56,36.86 0.65,0.45 33.7,0.16 37.44,0.16l0 -37.02 -38 0z"/>
   <path class="fil0" d="M82.75 46.53c-1.6,5.68 -0.63,29.13 -0.75,36.71l36.74 0 -0.74 -36.71 -35.25 0z"/>
   <path class="fil2" d="M82.75 46.53l35.25 0 0.74 36.71 -36.74 0c0.12,-7.58 -0.85,-31.03 0.75,-36.71zm-1.57 38.13l38.48 0c1.36,-5.17 1.02,-33.37 0.33,-39.65l-39.22 0.01c-0.59,6.93 -1.1,34.02 0.41,39.64z"/>
   <path class="fil2" d="M38 45.98l38 0 0 37.02c-3.74,0 -36.79,0.29 -37.44,-0.16 -1.4,-0.97 -0.56,-32.15 -0.56,-36.86zm-0.94 38.52l38.94 0.15 0.99 -39.4 -0.99 -0.23 -38 0 -0.99 0.23 0.05 39.25z"/>
  </g>
 </g>
</svg>
